REM MD5 a25744dd4cc53aa78a463bee6aaab2c3
FILE "Umi no Oh! Yah! (Japan).bin" BINARY
  TRACK 01 MODE2/2352
    INDEX 01 00:00:00
  TRACK 02 AUDIO
    INDEX 00 61:27:02
    INDEX 01 61:29:02
  TRACK 03 AUDIO
    INDEX 00 64:08:70
    INDEX 01 64:10:70
REM LEADOUT 65:10:70
